<svg xmlns="http://www.w3.org/2000/svg" viewBox="0 0 1200 630" role="img" aria-label="POS Dashboard preview">
  <rect width="1200" height="630" fill="#111827"/>
  <rect x="64" y="72" width="1072" height="486" rx="18" fill="#030712"/>
  <rect x="92" y="100" width="360" height="386" rx="10" fill="#1f2937"/>
  <rect x="92" y="506" width="360" height="24" rx="8" fill="#dc2626"/>
  <rect x="476" y="100" width="296" height="430" rx="10" fill="#111827"/>
  <rect x="500" y="124" width="248" height="74" rx="10" fill="#1f2937"/>
  <rect x="500" y="216" width="112" height="128" rx="10" fill="#374151"/>
  <rect x="636" y="216" width="112" height="128" rx="10" fill="#374151"/>
  <rect x="500" y="364" width="112" height="128" rx="10" fill="#374151"/>
  <rect x="636" y="364" width="112" height="128" rx="10" fill="#374151"/>
  <rect x="796" y="100" width="312" height="254" rx="10" fill="#111827"/>
  <g fill="#dc2626">
    <rect x="812" y="116" width="82" height="70" rx="10"/>
    <rect x="902" y="116" width="82" height="70" rx="10"/>
    <rect x="992" y="116" width="82" height="70" rx="10"/>
    <rect x="812" y="196" width="82" height="70" rx="10"/>
    <rect x="902" y="196" width="82" height="70" rx="10"/>
    <rect x="992" y="196" width="82" height="70" rx="10"/>
    <rect x="812" y="276" width="82" height="70" rx="10"/>
    <rect x="902" y="276" width="82" height="70" rx="10"/>
    <rect x="992" y="276" width="82" height="70" rx="10"/>
  </g>
  <text x="92" y="604" fill="#ffffff" font-family="Arial, sans-serif" font-size="42" font-weight="800">POS Dashboard</text>
  <text x="476" y="604" fill="#dc2626" font-family="Arial, sans-serif" font-size="30" font-weight="700">Sales • Inventory • Reports</text>
</svg>
