<svg width="429" height="493" viewBox="0 0 429 493" fill="none" xmlns="http://www.w3.org/2000/svg">
<path d="M190.009 150.249C183.962 147.226 180.62 141.655 182.544 137.807C184.469 133.959 190.93 133.291 196.979 136.316C199.412 137.491 201.528 139.232 203.151 141.392L228.612 154.525L222.195 166.342L197.776 152.141C195.073 152.14 192.41 151.491 190.009 150.249Z" fill="#FFB6B6"/>
<path d="M334.267 455.735L322.147 455.734L316.382 408.986L334.27 408.987L334.267 455.735Z" fill="#FFB6B6"/>
<path d="M292.743 455.461C292.366 456.096 292.167 458.147 292.167 458.886C292.167 461.158 294.008 463 296.28 463H333.814C335.364 463 336.62 461.744 336.62 460.194V458.631C336.62 458.631 338.477 453.935 334.654 448.146C334.654 448.146 329.903 452.678 322.804 445.579L320.71 441.786L305.556 452.87L297.156 453.904C295.318 454.13 293.689 453.868 292.743 455.461Z" fill="#2F2E41"/>
<path d="M315.235 404.333L304.472 409.904L277.859 371.041L293.744 362.818L315.235 404.333Z" fill="#FFB6B6"/>
<path d="M278.234 423.18C278.191 423.918 278.957 425.831 279.297 426.488C280.341 428.505 282.824 429.294 284.841 428.249L318.172 410.993C319.549 410.28 320.087 408.587 319.374 407.211L318.656 405.823C318.656 405.823 318.145 400.798 312.089 397.415C312.089 397.415 309.954 403.625 300.385 400.584L296.783 398.179L288.42 414.989L281.436 419.769C279.908 420.815 278.341 421.332 278.234 423.18Z" fill="#2F2E41"/>
<path d="M346.575 84.6809H314.791L315.484 95.0444L294.757 161.112L290.871 205.156L329.734 211.633L347.87 130.021L343.984 92.4535L346.575 84.6809Z" fill="white"/>
<path d="M344.632 93.1013L378.313 109.942L357.586 179.895L361.472 251.144C361.472 251.144 308.36 267.985 310.95 220.054C313.541 172.123 313.541 164.35 313.541 164.35L344.632 93.1013Z" fill="#2F2E41"/>
<path d="M290.871 101.828C290.871 101.828 282.451 95.6921 278.564 104.76C274.678 113.828 249.417 159.816 249.417 159.816L209.906 142.328L203.429 156.578C203.429 156.578 235.815 187.668 255.247 183.782C274.678 179.895 290.223 146.214 290.223 146.214L290.871 101.828Z" fill="#2F2E41"/>
<path d="M357.586 238.19C357.586 238.19 358.881 258.917 356.29 275.757C353.699 292.598 336.211 435.744 336.211 435.744L314.189 434.448L312.246 266.689L281.155 315.916L308.359 389.756L289.576 398.176L250.065 317.211L277.269 225.236L285.041 201.918L343.336 208.395L357.586 238.19Z" fill="#2F2E41"/>
<path d="M270.792 243.372C270.792 243.372 305.769 253.735 313.541 164.35L315.299 92.2789L282.451 100.874L286.337 165.646L270.792 243.372Z" fill="#2F2E41"/>
<path d="M330.381 76.2606C317.503 76.2606 307.064 65.8208 307.064 52.9428C307.064 40.0647 317.503 29.6249 330.381 29.6249C343.259 29.6249 353.699 40.0647 353.699 52.9428C353.699 65.8208 343.259 76.2606 330.381 76.2606Z" fill="#FFB6B6"/>
<path d="M345.279 75.6129C345.279 75.6129 355.643 63.954 356.938 58.7722C358.234 53.5905 358.234 39.3407 356.938 38.0453C355.643 36.7498 341.393 23.7955 336.211 25.0909C331.029 26.3864 320.758 32.8635 311.598 32.8635C309.007 32.8635 307.712 45.8179 307.712 45.8179L318.075 47.1133C318.075 47.1133 331.029 40.6361 329.734 47.1133C328.439 53.5905 338.802 53.5905 338.802 53.5905L337.507 58.7722L341.393 60.0677L343.984 54.8859C343.984 54.8859 342.688 66.5448 338.802 71.7266C334.916 76.9083 345.279 75.6129 345.279 75.6129Z" fill="#2F2E41"/>
<path d="M355.604 262.132C352.049 267.883 346.2 270.71 342.541 268.447C338.881 266.184 338.797 259.688 342.355 253.936C343.744 251.619 345.668 249.668 347.966 248.247L363.337 224.071L374.528 231.526L358.187 254.568C357.943 257.259 357.057 259.853 355.604 262.132Z" fill="#FFB6B6"/>
<path d="M373.131 109.942H379.608C379.608 109.942 405.517 168.236 404.222 179.895C404.222 179.895 404.222 190.259 397.744 198.031C391.267 205.804 364.063 249.849 364.063 249.849L352.404 240.781L375.722 186.372L361.472 129.373L373.131 109.942Z" fill="#2F2E41"/>
<path d="M168.895 115C171.331 115 173.652 114 175.323 112.215C186.077 100.722 192 85.7045 192 69.9288C192 56.7827 187.943 44.2316 180.267 33.632C178.751 31.5379 176.397 30.2237 173.81 30.0267C171.182 29.8231 168.611 30.7908 166.758 32.6726L135.571 64.3397C132.45 67.5088 132.131 72.5684 134.829 76.1085L161.78 111.471C163.382 113.573 165.81 114.855 168.442 114.988C168.593 114.996 168.744 115 168.895 115Z" fill="white"/>
<path d="M119.148 134C128.864 134 138.186 131.852 146.857 127.615C150.007 126.076 152.273 123.24 153.076 119.832C153.878 116.425 153.115 112.878 150.982 110.101L128.29 80.5503C124.161 75.1747 124.65 67.4913 129.425 62.6782L152.655 39.2693C156.012 35.8855 157.535 31.2447 156.832 26.5368C156.125 21.8044 153.293 17.7848 149.062 15.5091C139.523 10.3779 128.714 7.78096 117.801 8.01447C84.9156 8.69891 57.8087 34.8777 56.0901 67.6126C55.1721 85.1013 61.2967 101.703 73.3365 114.359C85.3837 127.025 101.653 134 119.148 134ZM119.125 10.1482C129.23 10.1482 126.812 19.7116 135.653 24.4663C139.28 26.4176 154.097 22.7968 154.703 26.8535C155.305 30.8854 154.001 34.8603 151.125 37.7585L127.895 61.1674C122.367 66.7391 121.802 75.6334 126.58 81.8563L149.273 111.407C151.013 113.671 151.634 116.563 150.98 119.341C150.326 122.119 148.478 124.432 145.91 125.687C137.537 129.778 128.533 115.386 119.148 115.386C102.25 115.386 86.5347 125.115 74.8978 112.881C63.2687 100.656 57.3528 84.6192 58.24 67.7252C59.8998 36.1079 86.082 10.8229 117.846 10.1615C118.272 10.1527 118.699 10.1482 119.125 10.1482Z" fill="#E6E6E6"/>
<path d="M84.8627 71.576C83.6209 70.1548 83 68.0748 83 65.3346C83 62.6208 83.6209 60.5526 84.8627 59.1314C86.1042 57.7106 87.8236 57 90.0196 57C92.2416 57 93.9805 57.7106 95.2354 59.1314C96.4904 60.5526 97.1176 62.6208 97.1176 65.3346C97.1176 68.0748 96.4904 70.1548 95.2354 71.576C93.9805 72.9972 92.2416 73.7078 90.0196 73.7078C87.8236 73.7078 86.1042 72.9972 84.8627 71.576ZM92.255 69.3675C92.7256 68.5482 92.9607 67.2041 92.9607 65.3346C92.9607 63.5168 92.7188 62.1918 92.2352 61.3594C91.7511 60.5276 91.0129 60.1111 90.0196 60.1111C89.0523 60.1111 88.3335 60.5276 87.8626 61.3594C87.3921 62.1918 87.157 63.5168 87.157 65.3346C87.157 67.1781 87.3921 68.5166 87.8626 69.3484C88.3335 70.1809 89.0523 70.5966 90.0196 70.5966C91.0391 70.5966 91.7845 70.1875 92.255 69.3675ZM91.9057 81.0743L105.902 57.3838C107.834 57.3838 109.04 59.4344 108.071 61.0715L94.0589 84.7312C92.1427 84.7312 90.946 82.6987 91.9057 81.0743ZM104.745 82.8682C103.503 81.4471 102.882 79.3539 102.882 76.5883C102.882 73.8745 103.503 71.8132 104.745 70.4045C105.987 68.9966 107.719 68.2922 109.941 68.2922C112.163 68.2922 113.895 68.9966 115.137 70.4045C116.379 71.8132 117 73.8873 117 76.6268C117 79.3671 116.379 81.4471 115.137 82.8682C113.895 84.2894 112.163 85 109.941 85C107.719 85 105.987 84.2894 104.745 82.8682ZM112.137 80.6406C112.608 79.8088 112.843 78.4707 112.843 76.6268C112.843 74.8091 112.601 73.4841 112.118 72.6516C111.634 71.8198 110.908 71.4034 109.941 71.4034C108.947 71.4034 108.216 71.8198 107.745 72.6516C107.274 73.4841 107.039 74.8091 107.039 76.6268C107.039 78.4707 107.274 79.8088 107.745 80.6406C108.216 81.4731 108.947 81.8889 109.941 81.8889C110.935 81.8889 111.667 81.4731 112.137 80.6406Z" fill="black"/>
</svg>
